<?xml version="1.0" encoding="UTF-8"?>
<svg width="512px" height="512px" viewBox="0 0 512 512" version="1.1" xmlns="http://www.w3.org/2000/svg" xmlns:xlink="http://www.w3.org/1999/xlink">
    <!-- Generator: Sketch 64 (93537) - https://sketch.com -->
    <title>Education</title>
    <desc>Created with Sketch.</desc>
    <g id="Education" stroke="none" stroke-width="1" fill="none" fill-rule="evenodd">
        <path d="M157.98443,182.666273 L376.956422,156.200822 C398.888206,153.550097 418.816268,169.180484 421.466993,191.112268 C421.834132,194.149931 421.851516,197.219689 421.518806,200.261315 L397.181776,422.749539 C395.145884,441.36159 380.471899,456.071198 361.86484,458.152213 L138.508396,483.132419 C116.553885,485.587814 96.7657466,469.780657 94.3103521,447.826146 C93.9583902,444.679136 93.9813719,441.501464 94.3788146,438.359874 L122.228193,218.224161 C124.587288,199.57667 139.324105,184.921602 157.98443,182.666273 Z" id="Rectangle" fill="#0097A7" transform="translate(257.500000, 319.466862) rotate(45.000000) translate(-257.500000, -319.466862) "></path>
        <path d="M139.947529,87.2799175 L397.956612,56.0561546 C419.887989,53.4020615 439.81845,69.0293879 442.472543,90.960765 C442.840172,93.9985625 442.858007,97.068512 442.525699,100.110376 L413.855037,362.554398 C411.82174,381.166684 397.149872,395.878314 378.543156,397.961973 L115.50666,427.417925 C93.5524985,429.876445 73.7621096,414.072106 71.3035888,392.117945 C70.9512055,388.971224 70.9737046,385.793791 71.3706135,382.652376 L104.196719,122.843571 C106.552837,104.195599 121.287448,89.5381247 139.947529,87.2799175 Z" id="Rectangle" fill="#00BCD4" transform="translate(256.500000, 241.536938) rotate(45.000000) translate(-256.500000, -241.536938) "></path>
        <g id="logo" transform="translate(167.000000, 131.000000)" fill="#FFFFFF" fill-rule="nonzero">
            <path d="M0,0 L0,184.335541 C0,205.137047 17.1351361,222 38.2723977,222 C42.907224,222 47.5035084,221.171506 51.8374462,219.554859 L175.611869,173.384479 C195.113385,166.110016 204.930186,144.654916 197.538307,125.463172 C194.944929,118.729911 190.419669,112.883135 184.5127,108.633682 L121.275012,63.1407165 L100.194596,91.5201066 L163.432283,137.013072 C163.751579,137.242772 163.996187,137.558814 164.13637,137.922774 C164.535931,138.960166 164.005293,140.119901 162.951157,140.513115 L39.1767343,186.683495 C38.8878051,186.791272 38.5813861,186.846505 38.2723977,186.846505 C36.8632469,186.846505 35.7209045,185.722308 35.7209045,184.335541 L35.7209045,0 L0,0 Z" id="Path-4"></path>
        </g>
    </g>
</svg>